<svg width="41" height="41" viewBox="0 0 41 41" fill="none" xmlns="http://www.w3.org/2000/svg">
<path d="M10.7338 22.3642C9.27259 23.3659 8.54199 25.0224 8.54199 27.3337C8.54199 30.8017 12.7915 36.7296 16.6241 36.7296H26.43C30.1797 36.7296 32.4587 33.441 32.4587 30.8017V19.6548C32.4587 18.9752 32.1887 18.3234 31.7081 17.8428C31.2276 17.3623 30.5758 17.0923 29.8962 17.0923H29.8876C29.2103 17.0923 28.5607 17.3614 28.0817 17.8403C27.6027 18.3193 27.3337 18.9689 27.3337 19.6462" stroke="#FFFDF5" stroke-width="2" stroke-linecap="round"/>
<path d="M11.9424 24.2969V6.83777C11.9427 6.50105 12.0094 6.16769 12.1387 5.85675C12.2679 5.54582 12.4572 5.2634 12.6956 5.02566C12.9341 4.78791 13.2171 4.59949 13.5284 4.47118C13.8397 4.34286 14.1733 4.27716 14.51 4.27784C15.1918 4.27965 15.845 4.5518 16.3263 5.03459C16.8077 5.51739 17.0779 6.1714 17.0776 6.85315V20.1517" stroke="#FFFDF5" stroke-width="2" stroke-linecap="round"/>
<path d="M17.0781 19.6531V16.2432C17.0954 15.5717 17.3743 14.9335 17.8554 14.4646C18.3365 13.9958 18.9817 13.7334 19.6534 13.7334C20.3252 13.7334 20.9704 13.9958 21.4515 14.4646C21.9325 14.9335 22.2115 15.5717 22.2288 16.2432V19.6531" stroke="#FFFDF5" stroke-width="2" stroke-linecap="round" stroke-linejoin="round"/>
<path d="M22.209 19.4033V17.0859C22.209 16.4063 22.479 15.7545 22.9595 15.274C23.4401 14.7934 24.0919 14.5234 24.7715 14.5234C25.4511 14.5234 26.1029 14.7934 26.5834 15.274C27.064 15.7545 27.334 16.4063 27.334 17.0859V19.6484" stroke="#FFFDF5" stroke-width="2" stroke-linecap="round" stroke-linejoin="round"/>
</svg>
