<svg width="42" height="24" viewBox="0 0 42 24" fill="none" xmlns="http://www.w3.org/2000/svg">
<path d="M36.1154 5.91002V4.97002C36.1154 4.65176 35.989 4.34654 35.764 4.12149C35.5389 3.89645 35.2337 3.77002 34.9154 3.77002H22.2654C21.9472 3.77002 21.6419 3.89645 21.4169 4.12149C21.1919 4.34654 21.0654 4.65176 21.0654 4.97002V14.11C21.0662 15.5381 21.3377 16.9531 21.8654 18.28C22.1341 18.8805 22.5761 19.387 23.1347 19.7345C23.6933 20.0819 24.343 20.2545 25.0004 20.23H32.1904C32.8484 20.2541 33.4986 20.0815 34.058 19.7341C34.6173 19.3868 35.0603 18.8805 35.3304 18.28C35.7291 17.2786 35.9784 16.224 36.0704 15.15L37.1104 14.63C37.661 14.3535 38.1238 13.9293 38.447 13.4047C38.7701 12.8802 38.941 12.2761 38.9404 11.66V9.19002C38.9385 8.39611 38.6527 7.62908 38.1346 7.02753C37.6165 6.42599 36.9003 6.0296 36.1154 5.91002ZM34.3854 17.92C34.1898 18.3318 33.8763 18.6762 33.4846 18.9095C33.0929 19.1427 32.6407 19.2543 32.1854 19.23H25.0004C24.5454 19.2529 24.0938 19.1408 23.7023 18.9077C23.3109 18.6746 22.9971 18.331 22.8004 17.92C22.3156 16.7084 22.0678 15.415 22.0704 14.11V4.97002C22.0704 4.91698 22.0915 4.86611 22.129 4.8286C22.1665 4.79109 22.2174 4.77002 22.2704 4.77002H34.9204C34.9735 4.77002 35.0243 4.79109 35.0618 4.8286C35.0994 4.86611 35.1204 4.91698 35.1204 4.97002V14.11C35.1215 15.4154 34.872 16.7087 34.3854 17.92ZM37.9354 11.66C37.9382 12.0905 37.8196 12.513 37.5932 12.8791C37.3668 13.2453 37.0418 13.5402 36.6554 13.73L36.1154 14V6.93002C36.6309 7.04303 37.0923 7.32867 37.4232 7.73966C37.7542 8.15064 37.9349 8.66233 37.9354 9.19002V11.66Z" fill="#FFFDF5"/>
<path d="M18.1154 5.91002V4.97002C18.1154 4.65176 17.989 4.34654 17.764 4.12149C17.5389 3.89645 17.2337 3.77002 16.9154 3.77002H4.26543C3.94717 3.77002 3.64195 3.89645 3.4169 4.12149C3.19186 4.34654 3.06543 4.65176 3.06543 4.97002V14.11C3.0662 15.5381 3.33766 16.9531 3.86543 18.28C4.1341 18.8805 4.57611 19.387 5.13471 19.7345C5.69332 20.0819 6.34303 20.2545 7.00043 20.23H14.1904C14.8484 20.2541 15.4986 20.0815 16.058 19.7341C16.6173 19.3868 17.0603 18.8805 17.3304 18.28C17.7291 17.2786 17.9784 16.224 18.0704 15.15L19.1104 14.63C19.661 14.3535 20.1238 13.9293 20.447 13.4047C20.7701 12.8802 20.941 12.2761 20.9404 11.66V9.19002C20.9385 8.39611 20.6527 7.62908 20.1346 7.02753C19.6165 6.42599 18.9003 6.0296 18.1154 5.91002ZM16.3854 17.92C16.1898 18.3318 15.8763 18.6762 15.4846 18.9095C15.0929 19.1427 14.6407 19.2543 14.1854 19.23H7.00043C6.54541 19.2529 6.09377 19.1408 5.70232 18.9077C5.31087 18.6746 4.99708 18.331 4.80043 17.92C4.31561 16.7084 4.06779 15.415 4.07043 14.11V4.97002C4.07043 4.91698 4.0915 4.86611 4.12901 4.8286C4.16652 4.79109 4.21739 4.77002 4.27043 4.77002H16.9204C16.9735 4.77002 17.0243 4.79109 17.0618 4.8286C17.0994 4.86611 17.1204 4.91698 17.1204 4.97002V14.11C17.1215 15.4154 16.872 16.7087 16.3854 17.92ZM19.9354 11.66C19.9382 12.0905 19.8196 12.513 19.5932 12.8791C19.3668 13.2453 19.0418 13.5402 18.6554 13.73L18.1154 14V6.93002C18.6309 7.04303 19.0923 7.32867 19.4232 7.73966C19.7542 8.15064 19.9349 8.66233 19.9354 9.19002V11.66Z" fill="#FFFDF5"/>
</svg>
