<svg width="37" height="37" viewBox="0 0 37 37" fill="none" xmlns="http://www.w3.org/2000/svg">
<path d="M6.35952 17.3438H30.6408C30.7941 17.3438 30.9412 17.2828 31.0496 17.1744C31.158 17.066 31.2189 16.919 31.2189 16.7656V12.7188C31.219 12.5669 31.1892 12.4164 31.1312 12.2761C31.0732 12.1357 30.988 12.0082 30.8807 11.9007L22.7869 3.80695C22.6795 3.69961 22.5519 3.6145 22.4116 3.55647C22.2712 3.49844 22.1208 3.46863 21.9689 3.46875H8.0939C7.48059 3.46875 6.89239 3.71239 6.45872 4.14607C6.02504 4.57974 5.7814 5.16794 5.7814 5.78125V16.7656C5.7814 16.919 5.84231 17.066 5.95073 17.1744C6.05915 17.2828 6.2062 17.3438 6.35952 17.3438ZM21.9689 6.35938L28.3283 12.7188H21.9689V6.35938ZM32.3752 22.0454C32.3493 22.3426 32.212 22.619 31.9909 22.8192C31.7697 23.0194 31.4811 23.1287 31.1828 23.125H27.7502V25.4375H30.0236C30.322 25.4335 30.6109 25.5426 30.8321 25.7429C31.0533 25.9432 31.1905 26.2198 31.216 26.5171C31.2265 26.6753 31.2044 26.8339 31.151 26.9832C31.0976 27.1324 31.0141 27.2691 30.9057 27.3847C30.7972 27.5003 30.6662 27.5924 30.5207 27.6553C30.3752 27.7181 30.2183 27.7503 30.0598 27.75H27.7502V30.0235C27.7542 30.3219 27.6451 30.6107 27.4448 30.8319C27.2445 31.0531 26.9678 31.1903 26.6705 31.2159C26.5123 31.2264 26.3537 31.2042 26.2045 31.1508C26.0552 31.0975 25.9185 31.014 25.8029 30.9055C25.6873 30.7971 25.5952 30.666 25.5324 30.5205C25.4695 30.375 25.4373 30.2181 25.4377 30.0596V21.9688C25.4377 21.6621 25.5595 21.368 25.7763 21.1512C25.9931 20.9343 26.2872 20.8125 26.5939 20.8125H31.2189C31.3774 20.8122 31.5343 20.8444 31.6798 20.9072C31.8253 20.9701 31.9564 21.0622 32.0648 21.1778C32.1732 21.2934 32.2568 21.4301 32.3101 21.5793C32.3635 21.7286 32.3857 21.8872 32.3752 22.0454ZM9.25015 20.8125H6.93765C6.63099 20.8125 6.3369 20.9343 6.12006 21.1512C5.90322 21.368 5.7814 21.6621 5.7814 21.9688V30.0235C5.77664 30.3224 5.88543 30.6119 6.0858 30.8338C6.28617 31.0556 6.56322 31.1932 6.86105 31.2188C7.01921 31.2293 7.17784 31.2071 7.32708 31.1537C7.47633 31.1003 7.61301 31.0168 7.72862 30.9084C7.84424 30.8 7.93633 30.6689 7.99916 30.5234C8.062 30.3779 8.09425 30.221 8.0939 30.0625V28.9062H9.16343C11.3661 28.9062 13.2305 27.1834 13.2956 24.9822C13.312 24.4407 13.2196 23.9013 13.0236 23.3961C12.8277 22.891 12.5324 22.4303 12.1551 22.0414C11.7778 21.6525 11.3263 21.3434 10.8273 21.1323C10.3283 20.9212 9.79197 20.8124 9.25015 20.8125ZM9.19956 26.5938H8.0939V23.125H9.25015C9.49273 23.1239 9.73285 23.1736 9.95501 23.2711C10.1772 23.3685 10.3764 23.5115 10.5398 23.6908C10.7033 23.87 10.8273 24.0815 10.9039 24.3117C10.9805 24.5419 11.008 24.7856 10.9845 25.027C10.9341 25.4629 10.7235 25.8646 10.3937 26.1541C10.0639 26.4436 9.63834 26.6002 9.19956 26.5938ZM18.5001 20.8125H16.1876C15.881 20.8125 15.5869 20.9343 15.3701 21.1512C15.1532 21.368 15.0314 21.6621 15.0314 21.9688V30.0625C15.0314 30.3692 15.1532 30.6633 15.3701 30.8801C15.5869 31.0969 15.881 31.2188 16.1876 31.2188H18.4019C21.2434 31.2188 23.6353 28.9814 23.7018 26.1414C23.7186 25.4477 23.5965 24.7577 23.3426 24.1119C23.0887 23.4662 22.7082 22.8777 22.2236 22.3812C21.7389 21.8846 21.1598 21.4901 20.5203 21.2207C19.8809 20.9513 19.194 20.8125 18.5001 20.8125ZM18.4293 28.9062H17.3439V23.125H18.5001C18.8893 23.1247 19.2745 23.203 19.6327 23.3552C19.9908 23.5074 20.3146 23.7303 20.5845 24.0106C20.8544 24.2909 21.065 24.6229 21.2035 24.9865C21.3421 25.3502 21.4058 25.7381 21.3908 26.1269C21.3301 27.6907 19.9946 28.9062 18.4293 28.9062Z" fill="#FFFDF5"/>
</svg>
