<svg width="35" height="48" viewBox="0 0 35 48" fill="none" xmlns="http://www.w3.org/2000/svg">
<path d="M27.4993 27C26.9164 26.9994 26.3426 27.1451 25.8306 27.4237C25.6775 26.9497 25.4249 26.5138 25.0899 26.1452C24.7548 25.7766 24.3449 25.4837 23.8875 25.2863C23.4302 25.0888 22.936 24.9912 22.4379 25C21.9398 25.0089 21.4494 25.1239 20.9993 25.3375V21.5C20.9993 20.5717 20.6306 19.6815 19.9742 19.0251C19.3178 18.3687 18.4276 18 17.4993 18C16.5711 18 15.6808 18.3687 15.0245 19.0251C14.3681 19.6815 13.9993 20.5717 13.9993 21.5V31.5L13.5218 30.7338C13.2909 30.3361 12.984 29.9878 12.6185 29.7088C12.253 29.4297 11.8362 29.2254 11.3917 29.1075C10.4941 28.8693 9.53869 28.9975 8.73558 29.4637C7.93247 29.93 7.34748 30.6963 7.10931 31.5938C6.87114 32.4914 6.99929 33.4469 7.46558 34.25L8.04933 35.2787C12.3506 42.8612 14.1306 46 19.9993 46C22.9157 45.9967 25.7117 44.8367 27.7739 42.7745C29.836 40.7123 30.996 37.9164 30.9993 35V30.5C30.9993 29.5717 30.6306 28.6815 29.9742 28.0251C29.3178 27.3687 28.4276 27 27.4993 27ZM28.9993 35C28.9967 37.3861 28.0476 39.6738 26.3604 41.361C24.6731 43.0483 22.3855 43.9974 19.9993 44C15.2956 44 14.0193 41.75 9.78933 34.29L9.20308 33.2563V33.25C9.00402 32.9058 8.94975 32.4967 9.05218 32.1126C9.1546 31.7284 9.40535 31.4006 9.74933 31.2013C9.97722 31.0694 10.236 31.0004 10.4993 31.0013C10.763 31.0009 11.0221 31.07 11.2506 31.2017C11.479 31.3333 11.6687 31.5229 11.8006 31.7513C11.8058 31.7612 11.8116 31.7708 11.8181 31.78L14.1518 35.53C14.267 35.7139 14.4389 35.8553 14.6415 35.933C14.8441 36.0106 15.0665 36.0203 15.2751 35.9604C15.4837 35.9006 15.6671 35.7745 15.7978 35.6013C15.9284 35.428 15.9992 35.217 15.9993 35V21.5C15.9993 21.1022 16.1574 20.7206 16.4387 20.4393C16.72 20.158 17.1015 20 17.4993 20C17.8972 20 18.2787 20.158 18.56 20.4393C18.8413 20.7206 18.9993 21.1022 18.9993 21.5V30C18.9993 30.2652 19.1047 30.5196 19.2922 30.7071C19.4798 30.8946 19.7341 31 19.9993 31C20.2645 31 20.5189 30.8946 20.7064 30.7071C20.894 30.5196 20.9993 30.2652 20.9993 30V28.5C20.9993 28.1022 21.1574 27.7206 21.4387 27.4393C21.72 27.158 22.1015 27 22.4993 27C22.8972 27 23.2787 27.158 23.56 27.4393C23.8413 27.7206 23.9993 28.1022 23.9993 28.5V31C23.9993 31.2652 24.1047 31.5196 24.2922 31.7071C24.4798 31.8946 24.7341 32 24.9993 32C25.2645 32 25.5189 31.8946 25.7064 31.7071C25.894 31.5196 25.9993 31.2652 25.9993 31V30.5C25.9993 30.1022 26.1574 29.7206 26.4387 29.4393C26.72 29.158 27.1015 29 27.4993 29C27.8972 29 28.2787 29.158 28.56 29.4393C28.8413 29.7206 28.9993 30.1022 28.9993 30.5V35Z" fill="black"/>
<g clip-path="url(#clip0_710_154)">
<path d="M29.2944 23.2959H25.3088M29.2944 23.2959V19.3104M29.2944 23.2959L24.6446 18.6461" stroke="black" stroke-width="2" stroke-linecap="round" stroke-linejoin="round"/>
</g>
<g clip-path="url(#clip1_710_154)">
<path d="M5.64705 5.64613H9.63256M5.64705 5.64613V9.63164M5.64705 5.64613L10.2968 10.2959" stroke="black" stroke-width="2" stroke-linecap="round" stroke-linejoin="round"/>
</g>
<g clip-path="url(#clip2_710_154)">
<path d="M5.64592 23.2959V19.3104M5.64592 23.2959H9.63143M5.64592 23.2959L10.2957 18.6461" stroke="black" stroke-width="2" stroke-linecap="round" stroke-linejoin="round"/>
</g>
<g clip-path="url(#clip3_710_154)">
<path d="M29.2955 5.64614V9.63165M29.2955 5.64614H25.31M29.2955 5.64614L24.6457 10.2959" stroke="black" stroke-width="2" stroke-linecap="round" stroke-linejoin="round"/>
</g>
<defs>
<clipPath id="clip0_710_154">
<rect width="11.2727" height="11.2727" fill="white" transform="translate(34.9414 20.971) rotate(135)"/>
</clipPath>
<clipPath id="clip1_710_154">
<rect width="11.2727" height="11.2727" fill="white" transform="translate(0 7.97101) rotate(-45)"/>
</clipPath>
<clipPath id="clip2_710_154">
<rect width="11.2727" height="11.2727" fill="white" transform="translate(7.9707 28.942) rotate(-135)"/>
</clipPath>
<clipPath id="clip3_710_154">
<rect width="11.2727" height="11.2727" fill="white" transform="translate(26.9707) rotate(45)"/>
</clipPath>
</defs>
</svg>
